<svg width="363" height="446" viewBox="0 0 363 446" fill="none" xmlns="http://www.w3.org/2000/svg">
<path fill-rule="evenodd" clip-rule="evenodd" d="M323.939 7.3718C319.934 5.81104 314.246 3.48491 310.917 2.10627C298.817 2.80835 274.197 4.31784 272.513 4.73909C270.83 5.16034 255.328 1.75522 247.787 7.3654e-06L235.656 7.3718H230.735L219.904 6.1455e-06L210.961 4.73909L180.974 4.44225e-06L167.717 7.3718H152.17L135.73 2.10626L109.952 6.84534L79.4392 0L36.8261 6.84534L37.9833 7.3718H32.6174C18.0899 7.3718 6.31305 19.1593 6.31305 33.7V44.9276C4.88371 48.5214 3.19647 52.6475 2.10435 55.2892C2.8058 67.4001 4.31391 92.0434 4.73478 93.7283C5.15565 95.4134 1.75362 110.929 0 118.477L6.31305 128.884V137.092L0 146.385L4.73478 155.336L0 185.351L6.31305 196.724V217.471L2.10435 230.635L6.31305 253.57V258.786L0 286.977L6.31305 326.348V330.682C6.31305 342.938 14.6788 353.237 26.0063 356.172L36.3 398.083L41.2962 357.171H42.1333C45.2914 358.433 48.7958 359.865 51.3167 360.906L58.3957 375.806L61.0717 360.689C73.5435 359.933 89.1583 358.923 90.4869 358.59C92.1703 358.169 107.672 361.574 115.213 363.329L122.738 358.756L133.27 371.951L139.766 361.063L143.096 363.329L152.039 358.59L182.026 363.329L193.389 357.011H214.117L227.27 361.223L231.716 360.406L244.908 375.806L255.691 358.456H261.84L283.561 363.329L304.124 360.026L320.868 390.586L324.04 432.354L328.48 446L330.383 385.445L342.569 354.021C350.961 349.622 356.687 340.821 356.687 330.682V318.401C358.116 314.808 359.804 310.682 360.896 308.04C360.194 295.929 358.686 271.286 358.265 269.601C357.844 267.916 361.246 252.4 363 244.852L356.687 234.445V226.237L363 216.945L358.265 207.993L363 177.979L356.687 166.605V145.858L360.896 132.694L356.687 109.76V104.543L363 76.3518L356.687 36.9816V33.7C356.687 19.1593 344.91 7.3718 330.383 7.3718H323.939ZM77.3348 341.214L100.806 346.479H116.441L133.626 343.32L143.49 346.479H169.4L178.87 341.214L208.857 345.953L217.8 341.214L225.536 346.479H237.018L245.683 341.214C253.223 342.969 268.725 346.374 270.409 345.953C272.092 345.532 296.713 344.022 308.813 343.32C310.825 344.153 313.698 345.332 316.54 346.479H330.383C339.099 346.479 346.165 339.407 346.165 330.682V322.137L339.852 282.765L346.165 254.573V249.358L341.956 226.423L346.165 213.258V192.512L339.852 181.138L344.587 151.124L339.852 142.172L346.165 132.88V124.672L339.852 114.264C341.606 106.717 345.008 91.2009 344.587 89.5159C344.166 87.8309 342.658 63.1877 341.956 51.0767C343.049 48.435 344.736 44.3087 346.165 40.7148V33.7C346.165 24.9756 339.099 17.9031 330.383 17.9031H322.897L283.561 24.2219L255.395 17.9031H250.184L227.27 22.1157L214.117 17.9031H193.39L182.026 24.2219L152.039 19.4829L143.096 24.222L133.812 17.9031H125.611L115.213 24.222C107.673 22.4667 92.1705 19.0616 90.487 19.4829C88.8035 19.9041 64.1826 21.4136 52.0826 22.1157C49.4433 21.0226 45.3208 19.3337 41.7302 17.9031H32.6174C23.9009 17.9031 16.8348 24.9756 16.8348 33.7V38.0348L23.1477 77.405L16.8348 105.596V110.813L21.0434 133.747L16.8348 146.911V167.658L23.1477 179.032L18.4129 209.046L23.1477 217.998L16.8348 227.29V235.498L23.1477 245.906C21.3941 253.453 17.9921 268.969 18.4129 270.654C18.8338 272.339 20.3419 296.982 21.0434 309.093C19.9513 311.735 18.2641 315.861 16.8348 319.455V330.682C16.8348 339.407 23.9009 346.479 32.6174 346.479H44.5561L77.3348 341.214Z" fill="#B0ECFF"/>
</svg>
