<svg width="176" height="77" viewBox="0 0 176 77" fill="none" xmlns="http://www.w3.org/2000/svg">
<path fill-rule="evenodd" clip-rule="evenodd" d="M172.5 77H0L2.83951 59.4485L13.6296 53.2206L21.5802 32.8382L34.0741 44.1618L63.037 0L75.5309 47.5588L90.2963 63.4118L95.5 71.5L123.724 70.7855C123.717 70.7724 123.711 70.7593 123.704 70.7461C123.629 70.5827 123.618 70.5047 123.629 70.319C123.637 70.1927 123.678 70.0219 123.716 69.9402C123.888 69.5837 124.432 69.2086 124.965 69.0749C125.111 69.0378 125.272 68.9672 125.336 68.9152C125.449 68.8224 125.588 68.607 125.591 68.5253C125.591 68.503 125.685 68.3581 125.798 68.2022C125.936 68.0128 126.023 67.9236 126.06 67.9385C126.158 67.9719 126.056 67.9014 125.546 67.5708C124.567 66.9395 123.843 66.3527 123.003 65.4986C122.211 64.6927 121.72 64.0874 121.101 63.1404C120.197 61.77 119.676 60.6187 119.049 58.6319C119.008 58.4982 118.982 58.4499 118.993 58.5205L119.012 58.6505L118.955 58.5316C118.869 58.3422 118.603 58.0154 118.453 57.9152C118.19 57.7332 118.04 57.6923 117.714 57.7146C117.402 57.7332 117.151 57.8297 116.787 58.0674C116.633 58.1677 116.562 58.1565 116.648 58.0451C116.678 58.008 116.652 58.0303 116.596 58.0897C116.397 58.3051 116.071 58.7545 115.759 59.241C114.979 60.4665 114.9 60.563 114.69 60.563C114.495 60.563 114.341 60.3476 114.109 59.746L114 59.4675V58.4091C114.004 57.8149 114.023 57.1464 114.053 56.8865C114.225 55.2301 114.626 53.6147 115.23 52.1329C116.262 49.5964 117.811 47.5687 119.664 46.3246C119.976 46.1129 120.009 46.0869 119.833 46.1724L119.702 46.2355L119.874 46.0572C120.321 45.5893 120.583 45.0434 120.655 44.4343C120.681 44.2189 120.688 44.1967 120.696 44.3155C120.703 44.3972 120.722 44.011 120.733 43.4613C120.76 42.4661 120.808 41.9721 120.962 41.1811C121.292 39.4394 122.035 37.6902 123.048 36.2456C123.491 35.6142 123.888 35.15 124.518 34.5261C125.201 33.8502 125.719 33.4269 126.435 32.9552C126.867 32.6693 127.913 32.0788 127.985 32.0788C128 32.0788 128.003 32.0602 127.988 32.0342C127.973 32.0082 127.977 32.0045 128.003 32.0194C128.026 32.0342 128.093 32.0194 128.15 31.9859C128.213 31.9488 128.225 31.9339 128.18 31.9451C128.12 31.9636 128.12 31.9525 128.198 31.9005C128.42 31.7445 129.057 31.2246 129.076 31.18C129.087 31.1541 129.087 31.1726 129.076 31.2246C129.065 31.2766 129.102 31.2358 129.166 31.1243C129.466 30.6007 129.826 30.2516 130.325 29.9917C130.701 29.7985 130.944 29.7168 131.627 29.5534C132.208 29.4123 132.632 29.2638 132.599 29.2081C132.587 29.1858 132.595 29.1821 132.621 29.1969C132.674 29.2303 132.82 29.1858 132.794 29.1449C132.782 29.1264 132.794 29.1004 132.816 29.0855C132.846 29.0707 132.85 29.0744 132.835 29.1004C132.801 29.1561 132.812 29.1561 132.977 29.0892C133.195 29.0001 133.656 28.7178 134.069 28.4208C134.283 28.2722 134.519 28.1125 134.602 28.0717C134.872 27.9305 135.082 27.9937 135.326 28.2982C135.442 28.4393 135.457 28.4839 135.461 28.6993C135.465 28.833 135.472 28.9741 135.476 29.0149L135.48 29.0892L135.513 29.0149C135.532 28.9741 135.547 28.9592 135.547 28.9852C135.555 29.0595 136.316 29.2043 136.785 29.2155C136.943 29.2192 137.074 29.2303 137.081 29.2378C137.089 29.2452 137.048 29.2749 136.988 29.3083C136.931 29.338 136.898 29.364 136.913 29.3678C136.973 29.3678 137.295 29.1709 137.824 28.807C138.372 28.4282 138.492 28.365 138.657 28.365C138.784 28.365 139.009 28.521 139.137 28.703C139.238 28.8478 139.238 28.8553 139.216 29.3046C139.193 29.8208 139.096 30.1885 138.848 30.6824C138.766 30.8421 138.728 30.9535 138.762 30.9275C138.792 30.8978 138.814 30.8941 138.811 30.9127C138.792 30.9795 138.856 31.3212 138.934 31.5588C139.058 31.9339 139.201 32.1679 139.505 32.4799L139.696 32.6804L139.546 32.595C139.291 32.4539 139.411 32.5393 139.996 32.9255C141.883 34.1696 143.297 35.7554 144.329 37.7793C144.719 38.5444 144.996 39.224 145.207 39.9519C145.679 41.5525 145.833 43.0677 145.702 44.8354C145.687 44.9988 145.69 45.0211 145.709 44.9097C145.743 44.7426 145.769 44.7871 145.81 45.0768C145.855 45.3702 146.009 45.7787 146.182 46.0609C146.306 46.2615 146.343 46.3098 146.542 46.54C146.614 46.6215 146.646 46.6583 146.643 46.6626C146.639 46.6662 146.612 46.6478 146.561 46.6143C146.204 46.3729 146.294 46.4583 146.767 46.8074C147.243 47.1565 148.219 48.1109 148.628 48.6234C150.117 50.4877 151.178 52.8385 151.696 55.401C151.921 56.5188 151.996 57.2764 151.996 58.5391L152 59.616L151.872 59.9577C151.565 60.797 151.31 60.9493 150.957 60.5073C150.871 60.3996 150.627 60.0357 150.417 59.7015C149.937 58.9364 149.663 58.5502 149.618 58.5762C149.599 58.5873 149.577 58.5799 149.562 58.5576C149.52 58.4908 149.119 58.2531 148.886 58.1565C148.56 58.0191 148.17 58.0191 147.911 58.1565C147.697 58.268 147.423 58.5353 147.277 58.7804L147.176 58.9476L147.198 58.8176C147.21 58.747 147.101 59.0293 146.958 59.4489C146.474 60.875 145.927 62.004 145.158 63.1812C144.107 64.7893 142.659 66.2673 141.11 67.3146C140.878 67.4706 140.649 67.6302 140.604 67.6674L140.521 67.7342L140.611 67.6934C140.668 67.6637 140.69 67.6637 140.675 67.6897C140.66 67.712 140.776 67.8197 140.941 67.9422C141.103 68.0573 141.309 68.2282 141.403 68.3136C141.493 68.4027 141.579 68.4733 141.594 68.4733C141.643 68.4733 141.849 68.8001 141.894 68.9561C141.954 69.1566 142.025 69.2309 142.213 69.2903C142.487 69.3757 142.866 69.5948 143.05 69.7768C143.216 69.9388 143.322 70.1123 143.374 70.288L174.5 69.5L175.5 74.5L172.5 77ZM134.428 70.5145C134.415 70.4203 134.402 70.2938 134.395 70.1741C134.373 69.8696 134.377 69.8102 134.425 69.7953C134.455 69.7842 134.347 69.7842 134.185 69.7916C134.024 69.8028 133.585 69.8139 133.21 69.8139C132.835 69.8176 132.565 69.8288 132.606 69.8362C132.677 69.8474 132.681 69.8733 132.666 70.1927C132.659 70.4155 132.644 70.5084 132.625 70.4601C132.599 70.4007 132.591 70.4118 132.591 70.5195C132.591 70.5326 132.59 70.5465 132.588 70.5611L134.428 70.5145ZM149.412 58.2605C149.449 58.3014 149.472 58.3348 149.46 58.3348C149.449 58.3348 149.412 58.3014 149.374 58.2605C149.337 58.2197 149.314 58.1863 149.325 58.1863C149.337 58.1863 149.374 58.2197 149.412 58.2605ZM118.959 58.3422C118.948 58.3719 118.937 58.3608 118.937 58.3199C118.933 58.2791 118.944 58.2568 118.955 58.2717C118.967 58.2828 118.97 58.3162 118.959 58.3422ZM149.61 58.5391C149.599 58.5502 149.562 58.5131 149.524 58.4574L149.46 58.3534L149.547 58.4351C149.592 58.4796 149.622 58.5279 149.61 58.5391Z" fill="#B0ECFF"/>
<path d="M113.456 54.9594C113.407 55.0163 113.411 55.0207 113.473 54.9988C113.513 54.9857 113.545 54.955 113.545 54.9332C113.545 54.8763 113.518 54.885 113.456 54.9594Z" fill="#B0ECFF"/>
</svg>
